<svg xmlns="http://www.w3.org/2000/svg" xmlns:xlink="http://www.w3.org/1999/xlink" width="760" height="374" viewBox="0 0 760 374">
  <defs>
    <path id="collision-damage-a" d="M12.6118443,50.2950393 C17.5974753,50.2950393 24.276469,30.1826386 18.3806156,24.4855106 C12.4847621,18.7883826 13.8523983,1.15334741 8.86676738,1.15334741 C3.88113642,1.15334741 -2.43878875,18.1264664 4.48779105,27.8132543 C11.4143708,37.5000423 7.62621337,50.2950393 12.6118443,50.2950393 Z"/>
    <path id="collision-damage-b" d="M12.6118443,50.2950393 C17.5974753,50.2950393 24.276469,30.1826386 18.3806156,24.4855106 C12.4847621,18.7883826 13.8523983,1.15334741 8.86676738,1.15334741 C3.88113642,1.15334741 -2.43878875,18.1264664 4.48779105,27.8132543 C11.4143708,37.5000423 7.62621337,50.2950393 12.6118443,50.2950393 Z"/>
    <linearGradient id="collision-damage-c" x1="85.039%" x2="47.191%" y1="0%" y2="29.068%">
      <stop offset="0%" stop-color="#F6FAFF"/>
      <stop offset="100%" stop-color="#EAF3FF" stop-opacity="0"/>
    </linearGradient>
    <linearGradient id="collision-damage-d" x1="50%" x2="-62.377%" y1="-62.775%" y2="74.212%">
      <stop offset="0%" stop-color="#DDEAFF" stop-opacity=".269"/>
      <stop offset="100%" stop-color="#428DFF" stop-opacity="0"/>
    </linearGradient>
    <linearGradient id="collision-damage-e" x1="40.299%" x2="77.224%" y1="24.129%" y2="100%">
      <stop offset="0%" stop-color="#387DE7"/>
      <stop offset="100%" stop-color="#428DFF" stop-opacity=".06"/>
    </linearGradient>
    <linearGradient id="collision-damage-f" x1="96.697%" x2="7.198%" y1="43.602%" y2="88.23%">
      <stop offset="0%" stop-color="#387DE7"/>
      <stop offset="100%" stop-color="#428DFF" stop-opacity="0"/>
    </linearGradient>
    <polygon id="collision-damage-g" points="0 18.876 18.54 .577 34.049 19.661 34.049 97.076 0 97.076"/>
    <polygon id="collision-damage-h" points="0 18.876 18.54 .577 34.049 19.661 34.049 97.076 0 97.076"/>
    <polygon id="collision-damage-i" points="0 19.023 18.54 .577 34.049 19.661 34.049 97.076 0 97.076"/>
    <path id="collision-damage-j" d="M0,2.79073184 C0,1.2494532 1.25037361,0 2.78579514,0 L2.78579514,0 C4.32434732,0 5.57159029,1.24503976 5.57159029,2.79073184 L5.57159029,9.83050116 L0,9.83050116 L0,2.79073184 Z"/>
    <path id="collision-damage-l" d="M0,2.79073184 C0,1.2494532 1.25037361,0 2.78579514,0 L2.78579514,0 C4.32434732,0 5.57159029,1.24503976 5.57159029,2.79073184 L5.57159029,9.83050116 L0,9.83050116 L0,2.79073184 Z"/>
    <path id="collision-damage-n" d="M0,2.79073184 C0,1.2494532 1.25037361,0 2.78579514,0 L2.78579514,0 C4.32434732,0 5.57159029,1.24503976 5.57159029,2.79073184 L5.57159029,9.83050116 L0,9.83050116 L0,2.79073184 Z"/>
    <path id="collision-damage-p" d="M0,2.79073184 C0,1.2494532 1.25037361,0 2.78579514,0 L2.78579514,0 C4.32434732,0 5.57159029,1.24503976 5.57159029,2.79073184 L5.57159029,9.83050116 L0,9.83050116 L0,2.79073184 Z"/>
    <path id="collision-damage-r" d="M0,2.79073184 C0,1.2494532 1.25037361,0 2.78579514,0 L2.78579514,0 C4.32434732,0 5.57159029,1.24503976 5.57159029,2.79073184 L5.57159029,9.83050116 L0,9.83050116 L0,2.79073184 Z"/>
    <path id="collision-damage-t" d="M0,2.79073184 C0,1.2494532 1.25037361,0 2.78579514,0 L2.78579514,0 C4.32434732,0 5.57159029,1.24503976 5.57159029,2.79073184 L5.57159029,9.83050116 L0,9.83050116 L0,2.79073184 Z"/>
    <path id="collision-damage-v" d="M0,2.79073184 C0,1.2494532 1.25037361,0 2.78579514,0 L2.78579514,0 C4.32434732,0 5.57159029,1.24503976 5.57159029,2.79073184 L5.57159029,9.83050116 L0,9.83050116 L0,2.79073184 Z"/>
    <path id="collision-damage-x" d="M0,2.79073184 C0,1.2494532 1.25037361,0 2.78579514,0 L2.78579514,0 C4.32434732,0 5.57159029,1.24503976 5.57159029,2.79073184 L5.57159029,9.83050116 L0,9.83050116 L0,2.79073184 Z"/>
    <path id="collision-damage-z" d="M0,2.79073184 C0,1.2494532 1.25037361,0 2.78579514,0 L2.78579514,0 C4.32434732,0 5.57159029,1.24503976 5.57159029,2.79073184 L5.57159029,9.83050116 L0,9.83050116 L0,2.79073184 Z"/>
    <path id="collision-damage-B" d="M22.3573604,63.1153434 C31.1955244,63.1153434 43.0355587,37.8762524 32.5838185,30.7269153 C22.1320784,23.5775781 24.5565243,1.44733793 15.7183604,1.44733793 C6.88019639,1.44733793 -4.32330732,22.7469382 7.95562958,34.9029074 C20.2345665,47.0588766 13.5191964,63.1153434 22.3573604,63.1153434 Z"/>
    <path id="collision-damage-C" d="M22.3573604,63.1153434 C31.1955244,63.1153434 43.0355587,37.8762524 32.5838185,30.7269153 C22.1320784,23.5775781 24.5565243,1.44733793 15.7183604,1.44733793 C6.88019639,1.44733793 -4.32330732,22.7469382 7.95562958,34.9029074 C20.2345665,47.0588766 13.5191964,63.1153434 22.3573604,63.1153434 Z"/>
    <path id="collision-damage-D" d="M16.6247039,49.308862 C23.196672,49.308862 32.0008001,29.5908222 24.2289933,24.0054026 C16.4571865,18.4199829 18.2599796,1.13073275 11.6880116,1.13073275 C5.11604347,1.13073275 -3.21476698,17.7710455 5.91572456,27.2678964 C15.0462161,36.7647474 10.0527358,49.308862 16.6247039,49.308862 Z"/>
    <path id="collision-damage-E" d="M13.7583756,46.3503303 C19.1972458,46.3503303 26.4834207,27.8153729 20.0515806,22.5650784 C13.6197405,17.3147839 15.1117073,1.06288879 9.67283715,1.06288879 C4.23396701,1.06288879 -2.66049681,16.7047827 4.89577205,25.6318226 C12.4520409,34.5588625 8.31950549,46.3503303 13.7583756,46.3503303 Z"/>
    <path id="collision-damage-F" d="M17.1979695,56.2121027 C23.9965572,56.2121027 33.1042759,33.7335373 25.0644758,27.3661589 C17.0246757,20.9987805 18.8896341,1.28903534 12.0910464,1.28903534 C5.29245876,1.28903534 -3.32562102,20.2589918 6.11971506,31.0854019 C15.5650511,41.911812 10.3993819,56.2121027 17.1979695,56.2121027 Z"/>
    <linearGradient id="collision-damage-G" x1="40.299%" x2="77.224%" y1="24.129%" y2="100%">
      <stop offset="0%" stop-color="#387DE7"/>
      <stop offset="100%" stop-color="#428DFF" stop-opacity=".124"/>
    </linearGradient>
    <path id="collision-damage-H" d="M5.52270199,8.29314787 C8.98517574,10.4105411 15.7158365,7.64615852 25.7146843,0 C37.0903557,8.69902102 48.4660271,12.1398837 59.8416985,10.322588 L59.8416985,10.3225879 C60.387068,10.2354636 60.8998055,10.6069447 60.9869298,11.1523142 C60.9954647,11.2057396 60.9996498,11.2597695 60.9994439,11.3138719 C60.812515,60.4379573 49.0509284,85 25.7146843,85 C11.4621597,85 4.22426128,59.7169039 4.00098913,9.15071175 L4.00096073,9.15071187 C3.99852211,8.59841682 4.44426881,8.14871632 4.99656386,8.1462777 C5.1821748,8.14545814 5.36435125,8.19631225 5.52270199,8.29314787 Z"/>
    <path id="collision-damage-I" d="M0.522701994,10.2931479 C3.98517574,12.4105411 10.7158365,9.64615852 20.7146843,2 C32.0903557,10.699021 43.4660271,14.1398837 54.8416985,12.322588 L54.8416985,12.3225879 C55.387068,12.2354636 55.8998055,12.6069447 55.9869298,13.1523142 C55.9954647,13.2057396 55.9996498,13.2597695 55.9994439,13.3138719 C55.812515,62.4379573 44.0509284,87 20.7146843,87 C6.46215966,87 -0.775738716,61.7169039 -0.999010867,11.1507117 L-0.999039265,11.1507119 C-1.00147789,10.5984168 -0.555731191,10.1487163 -0.00343614088,10.1462777 C0.182174802,10.1454581 0.364351254,10.1963123 0.522701994,10.2931479 Z"/>
    <path id="collision-damage-K" d="M1.30258682,37.9272236 C3.13287029,25.9778673 24.8198855,26.4060131 33.3793971,23.3507525 C41.9389087,20.2954918 55.0068615,0.718312569 61.3945099,0.718312569 C66.7820219,0.718312569 78.3508039,0.718312569 89.4715355,0.718312569 C131.053509,0.718312569 145.282872,7.16964101 156.005053,24.4088519 C169.424269,23.8441787 175.775212,26.2012814 175.775212,41.3336638 C175.775212,57.0982317 170.834099,57.0982317 161.462659,57.0982317 C148.497017,57.0982317 95.0900341,54.5648899 1.24171022,49.4982063 L1.2417076,49.4982546 C0.695817217,49.4687831 0.274758698,49.0064193 0.296351671,48.4601605 C0.437132585,44.8986867 0.7725443,41.3877077 1.30258682,37.9272236 Z"/>
    <path id="collision-damage-M" d="M21.8827928,0.117829385 L40.2244629,0.117829385 C40.7767476,0.117829385 41.2244629,0.565544635 41.2244629,1.11782939 C41.2244629,1.22132717 41.2083958,1.32419766 41.1768355,1.42276612 L34.7680215,21.4386522 C34.6257463,21.8830033 34.1950966,22.169915 33.7302292,22.1300605 L1.60044355,19.3754776 C1.05017736,19.3283016 0.642342167,18.843979 0.689518138,18.2937129 C0.709686515,18.0584665 0.812443164,17.837944 0.97959557,17.6711876 L16.2326518,2.45426988 C17.7323936,0.958081311 19.7643486,0.117829385 21.8827928,0.117829385 Z"/>
    <path id="collision-damage-N" d="M1.35634112,1.426358 L23.5805647,0.343542894 C25.4421446,0.252842454 27.1196688,1.45984753 27.6252446,3.25375373 L32.7571933,21.4631597 C32.9070074,21.9947368 32.5975274,22.5471135 32.0659503,22.6969276 C31.9776767,22.7218057 31.8864002,22.7344222 31.7946879,22.7344222 L3.73549412,22.7344222 C2.68705579,22.7344222 1.81657108,21.9247824 1.74073321,20.8790905 L0.40762523,2.49750731 C0.367676193,1.94666929 0.78183354,1.46774176 1.33267156,1.42779272 C1.34055546,1.42722095 1.34844587,1.42674267 1.35634112,1.426358 Z"/>
    <path id="collision-damage-O" d="M2.52295798,0.142720826 C9.48834104,1.10078525 15.5243313,2.58672641 20.6309287,4.60054429 C25.6538017,6.58134494 30.6694829,11.1762437 35.6779723,18.3852405 L35.6779402,18.3852628 C35.9930439,18.8388091 35.8808141,19.461923 35.4272678,19.7770268 C35.2673253,19.8881477 35.0784147,19.9501443 34.8837309,19.9554046 L2.46081672,20.831464 C1.35665021,20.8612983 0.437360902,19.9903799 0.407526589,18.8862134 C0.406042486,18.8312869 0.406822535,18.7763225 0.40986475,18.7214601 L1.38818072,1.07806592 C1.4187602,0.526605204 1.89059702,0.10434754 2.44205773,0.134927029 C2.46911895,0.136427623 2.49610799,0.139027702 2.52295798,0.142720826 Z"/>
    <linearGradient id="collision-damage-Q" x1="50%" x2="50%" y1="35.538%" y2="100%">
      <stop offset="0%" stop-color="#428DFF"/>
      <stop offset="100%" stop-color="#428DFF" stop-opacity="0"/>
    </linearGradient>
    <ellipse id="collision-damage-P" cx="17.774" cy="23.305" rx="17.774" ry="17.851"/>
    <linearGradient id="collision-damage-S" x1="50%" x2="50%" y1="38.456%" y2="123.903%">
      <stop offset="0%" stop-color="#B1F5E8"/>
      <stop offset="100%" stop-color="#C0D9FD" stop-opacity="0"/>
    </linearGradient>
    <path id="collision-damage-R" d="M9.87461658,46.6109167 L25.6740031,46.6109167 L25.6740031,51.5695248 C25.6740031,54.3080885 23.4605302,56.528133 20.7183273,56.528133 L14.8302924,56.528133 C12.0933482,56.528133 9.87461658,54.302516 9.87461658,51.5695248 L9.87461658,46.6109167 Z"/>
    <linearGradient id="collision-damage-U" x1="50%" x2="50%" y1="33.605%" y2="100%">
      <stop offset="0%" stop-color="#C0D9FD"/>
      <stop offset="100%" stop-color="#C0D9FC" stop-opacity="0"/>
    </linearGradient>
    <ellipse id="collision-damage-T" cx="18.021" cy="23.305" rx="6.172" ry="17.851"/>
  </defs>
  <g fill="none" fill-rule="evenodd" transform="translate(1 20)">
    <g opacity=".3" transform="translate(47 167)">
      <use fill="#80EFC5" transform="rotate(3 11.06 25.724)" xlink:href="#collision-damage-a"/>
      <path stroke="#86B6FF" stroke-linecap="round" d="M11.2685291 65C11.2685291 65 13.9662817 31.5310342 9 10M11 24C11 24 11.3729756 21.010411 13 19"/>
      <path stroke="#86B6FF" stroke-linecap="round" d="M9,29 C9,29 9.37297563,26.010411 11,24" transform="scale(-1 1) rotate(8 0 -116.507)"/>
      <path stroke="#86B6FF" stroke-linecap="round" d="M11,32 C11,32 11.7459513,28.4124932 15,26"/>
    </g>
    <g opacity=".3" transform="translate(69 167)">
      <use fill="#80EFC5" transform="rotate(3 11.06 25.724)" xlink:href="#collision-damage-b"/>
      <path stroke="#86B6FF" stroke-linecap="round" d="M11.2685291 65C11.2685291 65 13.9662817 31.5310342 9 10M11 24C11 24 11.3729756 21.010411 13 19"/>
      <path stroke="#86B6FF" stroke-linecap="round" d="M9,29 C9,29 9.37297563,26.010411 11,24" transform="scale(-1 1) rotate(8 0 -116.507)"/>
      <path stroke="#86B6FF" stroke-linecap="round" d="M11,32 C11,32 11.7459513,28.4124932 15,26"/>
    </g>
    <path fill="url(#collision-damage-c)" d="M275.240023,186.509563 C290.58826,149.552572 210.819734,127.53452 464.879601,110.265311 C718.939467,92.9961012 690.344949,257.846251 535.934485,278.810187 C381.524021,299.774123 182.243281,356.616141 34.5293638,326.267044 C-113.184553,295.917947 259.891787,223.466555 275.240023,186.509563 Z"/>
    <g transform="translate(75)">
      <path fill="url(#collision-damage-d)" d="M494.125873 151C494.125873 151 509.790154 155.647395 527.581876 155.647395 545.373599 155.647395 567.962173 151.480584 567.962173 151.480584L564.793186 154.882086 568 157.362762 559.970246 159.057667 559.970246 164.794166 552.927464 164.794166 552.927464 167.187831 551.655594 167.187831 551.655594 169.892396 559.357555 169.892396 559.357555 174.435747 552.124634 174.435747 552.124634 187.699205 556.938897 187.699205 556.938897 185.918167 555.370228 185.918167 555.370228 183.11193 562.936467 183.11193 562.936467 185.367781 561.076905 185.367781 561.076905 187.741258 563.973339 187.741258 563.973339 190.812124 561.181201 190.812124 561.181201 201.816214 563.859719 201.816214 563.859719 205.494208 561.412967 205.494208 561.412967 233.835534 557.057296 233.835534 557.057296 205.361613 552.198846 205.361613 552.198846 233.618301 546.120448 233.618301C546.120448 233.618301 546.120448 205.517138 546.120448 205.519992 546.120448 205.522845 540.079753 205.519992 540.079753 205.519992L540.079753 233.828384 535.580665 233.828384 535.580665 205.433811 533.924524 205.433811 533.924524 202.216586 536.002464 202.216586 536.002464 191.537839 533.739129 191.537839 533.739129 187.54418 535.828529 187.54418 535.828529 185.88161 533.921287 185.88161 533.921287 182.622139 541.563106 182.622139 541.563106 185.303619 539.890392 185.303619 539.890392 187.720423 546.030371 187.720423 546.030371 174.627644 516.135937 174.627644 516.135937 187.55217 522.08779 187.55217 522.08779 186.047639 519.871634 186.047639 519.871634 183.011779 527.97162 183.011779 527.97162 185.693804 525.833657 185.693804 525.833657 187.805729 528.576994 187.805729 528.576994 190.900024 526.300916 190.900024 526.300916 201.852046 528.66202 201.852046 528.66202 205.45139 526.555874 205.45139 526.555874 234 521.879673 234 521.879673 205.732913 515.863943 205.732913 515.863943 233.935189 510.158486 233.935189 510.158486 205.539748 505.08042 205.539748 505.08042 233.851662 500.343523 233.851662 500.343523 205.693138 498.699092 205.693138 498.699092 201.910515 500.78301 201.910515 500.78301 191.226925 498.43149 191.226925 498.43149 187.43287 500.76641 187.43287 500.76641 185.909703 498.355498 185.909703 498.355498 183.287749 506.253447 183.287749 506.253447 185.570825 504.676755 185.570825 504.676755 187.755433 509.72182 187.755433 509.72182 174.618004 502.179654 174.618004 502.179654 169.617969 509.779061 169.617969 509.779061 167.343286 508.719427 167.343286 508.719427 164.635177 502.827984 164.635177 502.827984 158.763111 494 157.328852 497.200293 154.776849 494.125873 151zM516.385285 165.024831L516.658426 167.093057 515 167.093057 515 170 547 170 547 167.243688 545.382656 167.243688 545.382656 165 516.385285 165.024831zM504 192L504 202 510 202 510 192 504 192zM541 192L541 202 547 202 547 192 541 192zM515 192L515 202 521 202 521 192 515 192zM552 192L552 202 558 202 558 192 552 192zM363 219.926548L384.610983 74.853824 395.48836 76.2586085 397.163629 61 430.722416 65.4683308 428.932693 80.7127832 438 81.5071901 420.611457 222 363 219.926548zM401.082168 67.6473044L400.595819 71.6083035 406.551096 72.3395196 407.037445 68.3785204C407.239698 66.7313067 406.071047 65.2280082 404.426543 65.0260885 402.785385 64.8245796 401.284711 65.9977271 401.082168 67.6473044zM409.082168 71.6473044L408.595819 75.6083035 414.551096 76.3395196 415.037445 72.3785204C415.239698 70.7313067 414.071047 69.2280082 412.426543 69.0260885 410.785385 68.8245796 409.284711 69.9977271 409.082168 71.6473044zM386.556405 80.9072834L385.337172 90.8371345 387.322265 91.0808732 388.541497 81.1510221C388.608616 80.6043867 388.218449 80.1083027 387.670281 80.0409962 387.118292 79.9732203 386.623414 80.3615396 386.556405 80.9072834zM383.556405 93.9072834L382.337172 103.837134 384.322265 104.080873 385.541497 94.1510221C385.608616 93.6043867 385.218449 93.1083027 384.670281 93.0409962 384.118292 92.9732203 383.623414 93.3615396 383.556405 93.9072834zM382.556405 106.907283L381.337172 116.837134 383.322265 117.080873 384.541497 107.151022C384.608616 106.604387 384.218449 106.108303 383.670281 106.040996 383.118292 105.97322 382.623414 106.36154 382.556405 106.907283zM380.556405 120.907283L379.337172 130.837134 381.322265 131.080873 382.541497 121.151022C382.608616 120.604387 382.218449 120.108303 381.670281 120.040996 381.118292 119.97322 380.623414 120.36154 380.556405 120.907283zM377.556405 134.907283L376.337172 144.837134 378.322265 145.080873 379.541497 135.151022C379.608616 134.604387 379.218449 134.108303 378.670281 134.040996 378.118292 133.97322 377.623414 134.36154 377.556405 134.907283zM375.556405 149.907283L374.337172 159.837134 376.322265 160.080873 377.541497 150.151022C377.608616 149.604387 377.218449 149.108303 376.670281 149.040996 376.118292 148.97322 375.623414 149.36154 375.556405 149.907283zM391.442423 81.7744263L390.344626 90.7152651 394.314811 91.2027425 395.412608 82.2619037C395.54567 81.1782012 394.766618 80.1756093 393.670281 80.0409962 392.566302 79.9054445 391.576499 80.6824661 391.442423 81.7744263zM388.442423 94.7744263L387.344626 103.715265 391.314811 104.202743 392.412608 95.2619037C392.54567 94.1782012 391.766618 93.1756093 390.670281 93.0409962 389.566302 92.9054445 388.576499 93.6824661 388.442423 94.7744263zM387.442423 107.774426L386.344626 116.715265 390.314811 117.202743 391.412608 108.261904C391.54567 107.178201 390.766618 106.175609 389.670281 106.040996 388.566302 105.905445 387.576499 106.682466 387.442423 107.774426zM384.442423 121.774426L383.344626 130.715265 387.314811 131.202743 388.412608 122.261904C388.54567 121.178201 387.766618 120.175609 386.670281 120.040996 385.566302 119.905445 384.576499 120.682466 384.442423 121.774426zM382.442423 137.774426L381.344626 146.715265 385.314811 147.202743 386.412608 138.261904C386.54567 137.178201 385.766618 136.175609 384.670281 136.040996 383.566302 135.905445 382.576499 136.682466 382.442423 137.774426zM381.442423 152.774426L380.344626 161.715265 384.314811 162.202743 385.412608 153.261904C385.54567 152.178201 384.766618 151.175609 383.670281 151.040996 382.566302 150.905445 381.576499 151.682466 381.442423 152.774426zM396.384722 82.2137877L395.348353 90.6543305 400.311084 91.2636772 401.347452 82.8231345C401.515729 81.4526299 400.540702 80.2092626 399.170281 80.0409962 397.790307 79.8715566 396.552724 80.8455216 396.384722 82.2137877zM393.384722 95.2137877L392.348353 103.65433 397.311084 104.263677 398.347452 95.8231345C398.515729 94.4526299 397.540702 93.2092626 396.170281 93.0409962 394.790307 92.8715566 393.552724 93.8455216 393.384722 95.2137877zM393.384722 108.213788L392.348353 116.65433 397.311084 117.263677 398.347452 108.823134C398.515729 107.45263 397.540702 106.209263 396.170281 106.040996 394.790307 105.871557 393.552724 106.845522 393.384722 108.213788zM390.384722 122.213788L389.348353 130.65433 394.311084 131.263677 395.347452 122.823134C395.515729 121.45263 394.540702 120.209263 393.170281 120.040996 391.790307 119.871557 390.552724 120.845522 390.384722 122.213788zM388.384722 137.213788L387.348353 145.65433 392.311084 146.263677 393.347452 137.823134C393.515729 136.45263 392.540702 135.209263 391.170281 135.040996 389.790307 134.871557 388.552724 135.845522 388.384722 137.213788zM387.384722 152.213788L386.348353 160.65433 391.311084 161.263677 392.347452 152.823134C392.515729 151.45263 391.540702 150.209263 390.170281 150.040996 388.790307 149.871557 387.552724 150.845522 387.384722 152.213788zM403.384722 83.2137877L402.348353 91.6543305 407.311084 92.2636772 408.347452 83.8231345C408.515729 82.4526299 407.540702 81.2092626 406.170281 81.0409962 404.790307 80.8715566 403.552724 81.8455216 403.384722 83.2137877zM400.384722 96.2137877L399.348353 104.65433 404.311084 105.263677 405.347452 96.8231345C405.515729 95.4526299 404.540702 94.2092626 403.170281 94.0409962 401.790307 93.8715566 400.552724 94.8455216 400.384722 96.2137877zM399.384722 109.213788L398.348353 117.65433 403.311084 118.263677 404.347452 109.823134C404.515729 108.45263 403.540702 107.209263 402.170281 107.040996 400.790307 106.871557 399.552724 107.845522 399.384722 109.213788zM397.384722 124.213788L396.348353 132.65433 401.311084 133.263677 402.347452 124.823134C402.515729 123.45263 401.540702 122.209263 400.170281 122.040996 398.790307 121.871557 397.552724 122.845522 397.384722 124.213788zM395.384722 139.213788L394.348353 147.65433 399.311084 148.263677 400.347452 139.823134C400.515729 138.45263 399.540702 137.209263 398.170281 137.040996 396.790307 136.871557 395.552724 137.845522 395.384722 139.213788zM394.384722 154.213788L393.348353 162.65433 398.311084 163.263677 399.347452 154.823134C399.515729 153.45263 398.540702 152.209263 397.170281 152.040996 395.790307 151.871557 394.552724 152.845522 394.384722 154.213788zM411.384722 84.2137877L410.348353 92.6543305 415.311084 93.2636772 416.347452 84.8231345C416.515729 83.4526299 415.540702 82.2092626 414.170281 82.0409962 412.790307 81.8715566 411.552724 82.8455216 411.384722 84.2137877zM408.384722 97.2137877L407.348353 105.65433 412.311084 106.263677 413.347452 97.8231345C413.515729 96.4526299 412.540702 95.2092626 411.170281 95.0409962 409.790307 94.8715566 408.552724 95.8455216 408.384722 97.2137877zM406.384722 111.213788L405.348353 119.65433 410.311084 120.263677 411.347452 111.823134C411.515729 110.45263 410.540702 109.209263 409.170281 109.040996 407.790307 108.871557 406.552724 109.845522 406.384722 111.213788zM404.384722 124.213788L403.348353 132.65433 408.311084 133.263677 409.347452 124.823134C409.515729 123.45263 408.540702 122.209263 407.170281 122.040996 405.790307 121.871557 404.552724 122.845522 404.384722 124.213788zM402.384722 139.213788L401.348353 147.65433 406.311084 148.263677 407.347452 139.823134C407.515729 138.45263 406.540702 137.209263 405.170281 137.040996 403.790307 136.871557 402.552724 137.845522 402.384722 139.213788zM401.384722 154.213788L400.348353 162.65433 405.311084 163.263677 406.347452 154.823134C406.515729 153.45263 405.540702 152.209263 404.170281 152.040996 402.790307 151.871557 401.552724 152.845522 401.384722 154.213788zM418.384722 85.2137877L417.348353 93.6543305 422.311084 94.2636772 423.347452 85.8231345C423.515729 84.4526299 422.540702 83.2092626 421.170281 83.0409962 419.790307 82.8715566 418.552724 83.8455216 418.384722 85.2137877zM415.384722 98.2137877L414.348353 106.65433 419.311084 107.263677 420.347452 98.8231345C420.515729 97.4526299 419.540702 96.2092626 418.170281 96.0409962 416.790307 95.8715566 415.552724 96.8455216 415.384722 98.2137877zM415.384722 111.213788L414.348353 119.65433 419.311084 120.263677 420.347452 111.823134C420.515729 110.45263 419.540702 109.209263 418.170281 109.040996 416.790307 108.871557 415.552724 109.845522 415.384722 111.213788zM411.384722 126.213788L410.348353 134.65433 415.311084 135.263677 416.347452 126.823134C416.515729 125.45263 415.540702 124.209263 414.170281 124.040996 412.790307 123.871557 411.552724 124.845522 411.384722 126.213788zM409.384722 140.213788L408.348353 148.65433 413.311084 149.263677 414.347452 140.823134C414.515729 139.45263 413.540702 138.209263 412.170281 138.040996 410.790307 137.871557 409.552724 138.845522 409.384722 140.213788zM408.384722 155.213788L407.348353 163.65433 412.311084 164.263677 413.347452 155.823134C413.515729 154.45263 412.540702 153.209263 411.170281 153.040996 409.790307 152.871557 408.552724 153.845522 408.384722 155.213788zM425.442423 85.7744263L424.344626 94.7152651 428.314811 95.2027425 429.412608 86.2619037C429.54567 85.1782012 428.766618 84.1756093 427.670281 84.0409962 426.566302 83.9054445 425.576499 84.6824661 425.442423 85.7744263zM422.442423 98.7744263L421.344626 107.715265 425.314811 108.202743 426.412608 99.2619037C426.54567 98.1782012 425.766618 97.1756093 424.670281 97.0409962 423.566302 96.9054445 422.576499 97.6824661 422.442423 98.7744263zM422.442423 112.774426L421.344626 121.715265 425.314811 122.202743 426.412608 113.261904C426.54567 112.178201 425.766618 111.175609 424.670281 111.040996 423.566302 110.905445 422.576499 111.682466 422.442423 112.774426zM419.442423 125.774426L418.344626 134.715265 422.314811 135.202743 423.412608 126.261904C423.54567 125.178201 422.766618 124.175609 421.670281 124.040996 420.566302 123.905445 419.576499 124.682466 419.442423 125.774426zM416.442423 140.774426L415.344626 149.715265 419.314811 150.202743 420.412608 141.261904C420.54567 140.178201 419.766618 139.175609 418.670281 139.040996 417.566302 138.905445 416.576499 139.682466 416.442423 140.774426zM415.442423 155.774426L414.344626 164.715265 418.314811 165.202743 419.412608 156.261904C419.54567 155.178201 418.766618 154.175609 417.670281 154.040996 416.566302 153.905445 415.576499 154.682466 415.442423 155.774426zM431.556405 85.9072834L430.337172 95.8371345 432.322265 96.0808732 433.541497 86.1510221C433.608616 85.6043867 433.218449 85.1083027 432.670281 85.0409962 432.118292 84.9732203 431.623414 85.3615396 431.556405 85.9072834zM428.556405 98.9072834L427.337172 108.837134 429.322265 109.080873 430.541497 99.1510221C430.608616 98.6043867 430.218449 98.1083027 429.670281 98.0409962 429.118292 97.9732203 428.623414 98.3615396 428.556405 98.9072834zM428.556405 113.907283L427.337172 123.837134 429.322265 124.080873 430.541497 114.151022C430.608616 113.604387 430.218449 113.108303 429.670281 113.040996 429.118292 112.97322 428.623414 113.36154 428.556405 113.907283zM425.556405 124.907283L424.337172 134.837134 426.322265 135.080873 427.541497 125.151022C427.608616 124.604387 427.218449 124.108303 426.670281 124.040996 426.118292 123.97322 425.623414 124.36154 425.556405 124.907283zM423.556405 141.907283L422.337172 151.837134 424.322265 152.080873 425.541497 142.151022C425.608616 141.604387 425.218449 141.108303 424.670281 141.040996 424.118292 140.97322 423.623414 141.36154 423.556405 141.907283zM421.556405 155.907283L420.337172 165.837134 422.322265 166.080873 423.541497 156.151022C423.608616 155.604387 423.218449 155.108303 422.670281 155.040996 422.118292 154.97322 421.623414 155.36154 421.556405 155.907283zM418.022362 69.634392L417.656754 72.6120304 423.61203 73.3432465 423.977638 70.365608C424.179147 68.72445 423.010112 67.2242813 421.365608 67.0223615 419.72445 66.8208527 418.224281 67.9898877 418.022362 69.634392zM86 216.722981L94.0719734 127.028745C94.0719734 127.028745 158.166879 114.592111 187.461078 120.675955 189.278305 147.256581 205.117324 146.65444 205.117324 146.65444L208.728408 162.263624C208.728408 162.263624 255.238119 166.184872 256.535748 173.69348 257.833378 181.202087 255.998844 228 255.998844 228L86 216.722981zM95.9053337 147.627925L95 159.606193 101.087097 160 101.99243 148.021732C102.110062 146.465375 100.842766 145.115708 99.1618603 145.006961 97.4843753 144.898436 96.0229584 146.07166 95.9053337 147.627925zM93.9053337 169.627925L93 181.606193 99.0870967 182 99.9924304 170.021732C100.110062 168.465375 98.8427656 167.115708 97.1618603 167.006961 95.4843753 166.898436 94.0229584 168.07166 93.9053337 169.627925zM104.723658 146.908715L104 157.413278 112.266092 158 112.98975 147.495437C113.149263 145.179967 111.428087 143.172407 109.145469 143.010388 106.867495 142.848699 104.883138 144.593709 104.723658 146.908715zM102.723658 168.908715L102 179.413278 110.266092 180 110.98975 169.495437C111.149263 167.179967 109.428087 165.172407 107.145469 165.010388 104.867495 164.848699 102.883138 166.593709 102.723658 168.908715zM210.901855 205.635825L210 217.604759 216.090545 218 216.9924 206.031066C217.110323 204.466058 215.841958 203.116134 214.1601 203.006991 212.481665 202.89807 211.019476 204.074817 210.901855 205.635825zM114.723658 147.908715L114 158.413278 122.266092 159 122.98975 148.495437C123.149263 146.179967 121.428087 144.172407 119.145469 144.010388 116.867495 143.848699 114.883138 145.593709 114.723658 147.908715zM113.723658 169.908715L113 180.413278 121.266092 181 121.98975 170.495437C122.149263 168.179967 120.428087 166.172407 118.145469 166.010388 115.867495 165.848699 113.883138 167.593709 113.723658 169.908715zM219.106365 202.828089L218 217.426887 226.882479 218 227.988844 203.401202C228.161414 201.124086 226.311493 199.168383 223.858664 199.010122 221.410826 198.852183 219.278158 200.561223 219.106365 202.828089zM125.723658 148.908715L125 159.413278 133.266092 160 133.98975 149.495437C134.149263 147.179967 132.428087 145.172407 130.145469 145.010388 127.867495 144.848699 125.883138 146.593709 125.723658 148.908715zM123.723658 169.908715L123 180.413278 131.266092 181 131.98975 170.495437C132.149263 168.179967 130.428087 166.172407 128.145469 166.010388 125.867495 165.848699 123.883138 167.593709 123.723658 169.908715zM230.106365 203.828089L229 218.426887 237.882479 219 238.988844 204.401202C239.161414 202.124086 237.311493 200.168383 234.858664 200.010122 232.410826 199.852183 230.278158 201.561223 230.106365 203.828089zM137.723658 149.908715L137 160.413278 145.266092 161 145.98975 150.495437C146.149263 148.179967 144.428087 146.172407 142.145469 146.010388 139.867495 145.848699 137.883138 147.593709 137.723658 149.908715zM135.723658 170.908715L135 181.413278 143.266092 182 143.98975 171.495437C144.149263 169.179967 142.428087 167.172407 140.145469 167.010388 137.867495 166.848699 135.883138 168.593709 135.723658 170.908715zM240.503709 212.522519L240 219.621691 245.489483 220 245.993192 212.900828C246.099123 211.407862 244.956257 210.11116 243.440378 210.006692 241.927583 209.902438 240.609707 211.028599 240.503709 212.522519zM148.723658 149.908715L148 160.413278 156.266092 161 156.98975 150.495437C157.149263 148.179967 155.428087 146.172407 153.145469 146.010388 150.867495 145.848699 148.883138 147.593709 148.723658 149.908715zM147.723658 171.908715L147 182.413278 155.266092 183 155.98975 172.495437C156.149263 170.179967 154.428087 168.172407 152.145469 168.010388 149.867495 167.848699 147.883138 169.593709 147.723658 171.908715zM159.723658 150.908715L159 161.413278 167.266092 162 167.98975 151.495437C168.149263 149.179967 166.428087 147.172407 164.145469 147.010388 161.867495 146.848699 159.883138 148.593709 159.723658 150.908715zM158.723658 172.908715L158 183.413278 166.266092 184 166.98975 173.495437C167.149263 171.179967 165.428087 169.172407 163.145469 169.010388 160.867495 168.848699 158.883138 170.593709 158.723658 172.908715zM202.723658 176.908715L202 187.413278 210.266092 188 210.98975 177.495437C211.149263 175.179967 209.428087 173.172407 207.145469 173.010388 204.867495 172.848699 202.883138 174.593709 202.723658 176.908715zM169.723658 151.908715L169 162.413278 177.266092 163 177.98975 152.495437C178.149263 150.179967 176.428087 148.172407 174.145469 148.010388 171.867495 147.848699 169.883138 149.593709 169.723658 151.908715zM169.723658 173.908715L169 184.413278 177.266092 185 177.98975 174.495437C178.149263 172.179967 176.428087 170.172407 174.145469 170.010388 171.867495 169.848699 169.883138 171.593709 169.723658 173.908715zM214.723658 176.908715L214 187.413278 222.266092 188 222.98975 177.495437C223.149263 175.179967 221.428087 173.172407 219.145469 173.010388 216.867495 172.848699 214.883138 174.593709 214.723658 176.908715zM180.723658 152.908715L180 163.413278 188.266092 164 188.98975 153.495437C189.149263 151.179967 187.428087 149.172407 185.145469 149.010388 182.867495 148.848699 180.883138 150.593709 180.723658 152.908715zM179.723658 173.908715L179 184.413278 187.266092 185 187.98975 174.495437C188.149263 172.179967 186.428087 170.172407 184.145469 170.010388 181.867495 169.848699 179.883138 171.593709 179.723658 173.908715zM225.723658 176.908715L225 187.413278 233.266092 188 233.98975 177.495437C234.149263 175.179967 232.428087 173.172407 230.145469 173.010388 227.867495 172.848699 225.883138 174.593709 225.723658 176.908715zM192.723658 152.908715L192 163.413278 200.266092 164 200.98975 153.495437C201.149263 151.179967 199.428087 149.172407 197.145469 149.010388 194.867495 148.848699 192.883138 150.593709 192.723658 152.908715zM190.723658 174.908715L190 185.413278 198.266092 186 198.98975 175.495437C199.149263 173.179967 197.428087 171.172407 195.145469 171.010388 192.867495 170.848699 190.883138 172.593709 190.723658 174.908715zM246.905334 179.627925L246 191.606193 252.087097 192 252.99243 180.021732C253.110062 178.465375 251.842766 177.115708 250.16186 177.006961 248.484375 176.898436 247.022958 178.07166 246.905334 179.627925zM237.905334 177.627925L237 189.606193 243.087097 190 243.99243 178.021732C244.110062 176.465375 242.842766 175.115708 241.16186 175.006961 239.484375 174.898436 238.022958 176.07166 237.905334 177.627925z"/>
      <path fill="url(#collision-damage-d)" d="M45.4164148 15.9763692L45.4198965 15 45.459406 15.457296 45.5801035 14 45.5906611 16.9764857 47.0172391 33.4881688 51.533693 33.5682651 51.0996943 37.9672512 48.6263981 38.1551134 48.6887131 39.4065575 51.3346161 39.617235 51.7327699 44.4259259 48.5563628 44.9482509 59.0006936 120.676637 66.2152011 120.676637 66.6817359 130.695956 64.4935443 130.669743 70.0114488 150.654984 76.7944015 150.477316 77.2267458 161.093717 73.9268117 161.682061 91 216 72.3512917 215.996117C72.3512917 215.996117 72.9341845 184.925038 66.6094947 177.303753 60.2848049 169.682468 45 169.033931 45 169.033931L45 168.617139C42.1978098 168.832816 29.9704587 170.143828 24.3905053 176.856219 18.0658155 184.464488 18.6487083 206.996123 18.6487083 206.996123L-2.36356832e-14 207 17.0731883 161.261205 13.7732542 160.673866 14.2055985 150.075595 20.9885512 150.25296 26.5064557 130.301848 24.3182641 130.328017 24.7847989 120.325808 31.2675483 120.325808 42.4436372 44.7267472 39.2672301 44.2053142 39.6653839 39.4048355 42.3112869 39.1945177 42.3736019 37.9452108 39.9003057 37.7576694 39.466307 33.3661956 43.9827609 33.2862361 45.4164148 15.9763692zM45.0013246 132.38101L38.4940544 132.38101 35.5779656 149.468872 45.5801035 149.468872 45.5801035 149.869555 55.4220344 149.869555 52.5059456 132.752462 45 132.752462 45.0013246 132.38101zM38 121C50 121 50 121 50 121L45.4356187 61.3733836C45.4356187 61.3733836 39.6825723 108.10565 38 121zM282 77L282 76 279 76 279 81 280 81 280 99 279 99 279 104 280 104 306 104 307 104 307 99 306 99 306 81 307 81 307 76 304 76 304 77 282 77zM275.818066 240L275.818066 113.711759 272 113.711759 272 71.1367621 276.019906 71.1367621 276.019906 57.6907807 281.254316 57.6907807 286.885734 41.3635026 286.885734 25.427221 292.892298 0 298.969821 24.3986704 298.969821 41.5549429 304.175843 57.9373576 310.249185 57.9373576 310.249185 70.9574176 314 70.9574176 314 113.336301 310.493718 113.336301 310.493718 239.581917 275.818066 240zM291 16L291 24 294 24 294 16 291 16zM281 62L281 67 284 67 284 62 281 62zM281 114L281 135 284 135 284 114 281 114zM306 139L281 139 281 142 306 142 306 139zM306 171L281 171 281 174 306 174 306 171zM306 202L281 202 281 205 306 205 306 202zM281 146L281 167 284 167 284 146 281 146zM281 177L281 198 284 198 284 177 281 177zM281 209L281 230 284 230 284 209 281 209zM297 62L297 67 300 67 300 62 297 62zM297 114L297 135 300 135 300 114 297 114zM297 146L297 167 300 167 300 146 297 146zM297 177L297 198 300 198 300 177 297 177zM297 209L297 230 300 230 300 209 297 209zM286 62L286 67 289 67 289 62 286 62zM286 114L286 135 289 135 289 114 286 114zM286 146L286 167 289 167 289 146 286 146zM286 177L286 198 289 198 289 177 286 177zM286 209L286 230 289 230 289 209 286 209zM302 62L302 67 305 67 305 62 302 62zM302 114L302 135 305 135 305 114 302 114zM302 146L302 167 305 167 305 146 302 146zM302 177L302 198 305 198 305 177 302 177zM302 209L302 230 305 230 305 209 302 209zM289 36L297 36 297 30 289 30 289 36z"/>
      <path stroke="url(#collision-damage-d)" stroke-linecap="square" d="M328.980159,129.628491 L328.980159,171.35566 M342.510367,131.658815 L330.310524,171.562706 M354.847287,137.57072 L331.51375,172.164112 M364.902878,146.842794 L332.474777,173.102553 M371.923769,158.996068 L332.9681,173.949748 M374.930767,172.335176 L333.305242,175.245916 M373.885319,185.968669 L333.227614,176.582098 M368.87961,198.694151 L332.742821,177.830566 M360.355111,209.389309 L331.897249,178.871989 M349.063638,217.110896 L330.771651,179.606764 M336.00105,221.17793 L329.473482,179.964491 M321.959268,221.17793 L328.486835,179.964491 M308.896679,217.110896 L327.188666,179.606764 M297.605207,209.389309 L326.063068,178.871989 M289.080707,198.694151 L325.217496,177.830566 M284.074998,185.968669 L324.732704,176.582098 M283.029551,172.335176 L324.655075,175.245916 M286.036548,158.996068 L324.992217,173.949748 M293.057439,146.842794 L325.485541,173.102553 M303.11303,137.57072 L326.446568,172.164112 M315.44995,131.658815 L327.649794,171.562706"/>
      <polygon stroke="url(#collision-damage-d)" stroke-width="7" points="328.74 180 357.487 270 299.993 270"/>
      <ellipse cx="328.5" cy="175.422" stroke="url(#collision-damage-d)" stroke-width="3" rx="51.857" ry="51.789"/>
      <ellipse cx="328.535" cy="175.459" stroke="url(#collision-damage-d)" stroke-width="3" rx="46.611" ry="46.55"/>
      <ellipse cx="328.931" cy="175.67" fill="url(#collision-damage-d)" rx="5.763" ry="5.755"/>
      <path fill="url(#collision-damage-d)" d="M328.5 123.633208C326.113341 123.633208 324.178571 121.700598 324.178571 119.316604 324.178571 116.932609 326.113341 115 328.5 115 330.886659 115 332.821429 116.932609 332.821429 119.316604 332.821429 121.700598 330.886659 123.633208 328.5 123.633208zM343.726107 125.927008C341.443734 125.229216 340.158545 122.815381 340.855557 120.535556 341.55257 118.255731 343.967839 116.973239 346.250213 117.671031 348.532586 118.368822 349.817775 120.782658 349.120763 123.062483 348.42375 125.342308 346.008481 126.6248 343.726107 125.927008zM357.59746 132.604319C355.61883 131.269716 355.095535 128.585601 356.428648 126.60918 357.761761 124.632759 360.446459 124.112463 362.425089 125.447066 364.403719 126.781669 364.927014 129.465784 363.593901 131.442205 362.260788 133.418626 359.57609 133.938922 357.59746 132.604319zM368.879843 143.071029C367.37787 141.216246 367.662199 138.496417 369.514911 136.996121 371.367623 135.495825 374.087132 135.783193 375.589105 137.637975 377.091079 139.492758 376.806749 142.212586 374.954037 143.712883 373.101326 145.213179 370.381816 144.925811 368.879843 143.071029zM376.541777 156.325765C375.686475 154.097627 376.797362 151.598779 379.023012 150.744432 381.248663 149.890084 383.746268 151.003762 384.601571 153.2319 385.456873 155.460038 384.345986 157.958887 382.120335 158.813234 379.894685 159.667581 377.397079 158.553903 376.541777 156.325765zM379.975988 171.318131C379.809503 168.937286 381.602442 166.872417 383.980629 166.706118 386.358816 166.539819 388.421681 168.335064 388.588165 170.715909 388.75465 173.096754 386.961711 175.161623 384.583524 175.327922 382.205337 175.494221 380.142473 173.698976 379.975988 171.318131zM378.830028 186.655205C379.366909 184.329716 381.685214 182.879277 384.008107 183.415559 386.331 183.951841 387.778848 186.271765 387.241967 188.597254 386.705085 190.922743 384.38678 192.373182 382.063887 191.8369 379.740995 191.300618 378.293146 188.980694 378.830028 186.655205zM373.205867 200.972358C374.399196 198.905451 377.04027 198.196196 379.104869 199.388193 381.169469 200.580191 381.875773 203.222055 380.682444 205.288962 379.489114 207.35587 376.848041 208.065125 374.783441 206.873127 372.718841 205.68113 372.012537 203.039266 373.205867 200.972358zM363.603921 212.995711C365.349413 211.368014 368.08245 211.461925 369.70833 213.205468 371.33421 214.949012 371.237246 217.681942 369.491754 219.30964 367.746262 220.937337 365.013225 220.843426 363.387345 219.099883 361.761464 217.35634 361.858429 214.623409 363.603921 212.995711zM350.878528 221.655474C353.023643 220.609232 355.609802 221.498102 356.654876 223.640822 357.699951 225.783542 356.808192 228.368707 354.663077 229.41495 352.517962 230.461192 349.931802 229.572322 348.886728 227.429602 347.841653 225.286882 348.733413 222.701717 350.878528 221.655474zM336.161934 226.181131C338.519209 225.807775 340.732485 227.413926 341.105424 229.76857 341.478363 232.123213 339.869741 234.334694 337.512465 234.708049 335.15519 235.081405 332.941914 233.475254 332.568975 231.12061 332.196036 228.765967 333.804659 226.554487 336.161934 226.181131zM320.838066 226.181131C323.195341 226.554487 324.803964 228.765967 324.431025 231.12061 324.058086 233.475254 321.84481 235.081405 319.487535 234.708049 317.130259 234.334694 315.521637 232.123213 315.894576 229.76857 316.267515 227.413926 318.480791 225.807775 320.838066 226.181131zM306.121472 221.655474C308.266587 222.701717 309.158347 225.286882 308.113272 227.429602 307.068198 229.572322 304.482038 230.461192 302.336923 229.41495 300.191808 228.368707 299.300049 225.783542 300.345124 223.640822 301.390198 221.498102 303.976357 220.609232 306.121472 221.655474zM293.396079 212.995711C295.141571 214.623409 295.238536 217.35634 293.612655 219.099883 291.986775 220.843426 289.253738 220.937337 287.508246 219.30964 285.762754 217.681942 285.66579 214.949012 287.29167 213.205468 288.91755 211.461925 291.650587 211.368014 293.396079 212.995711zM283.794133 200.972358C284.987463 203.039266 284.281159 205.68113 282.216559 206.873127 280.151959 208.065125 277.510886 207.35587 276.317556 205.288962 275.124227 203.222055 275.830531 200.580191 277.895131 199.388193 279.95973 198.196196 282.600804 198.905451 283.794133 200.972358zM278.169972 186.655205C278.706854 188.980694 277.259005 191.300618 274.936113 191.8369 272.61322 192.373182 270.294915 190.922743 269.758033 188.597254 269.221152 186.271765 270.669 183.951841 272.991893 183.415559 275.314786 182.879277 277.633091 184.329716 278.169972 186.655205zM277.024012 171.318131C276.857527 173.698976 274.794663 175.494221 272.416476 175.327922 270.038289 175.161623 268.24535 173.096754 268.411835 170.715909 268.578319 168.335064 270.641184 166.539819 273.019371 166.706118 275.397558 166.872417 277.190497 168.937286 277.024012 171.318131zM280.458223 156.325765C279.602921 158.553903 277.105315 159.667581 274.879665 158.813234 272.654014 157.958887 271.543127 155.460038 272.398429 153.2319 273.253732 151.003762 275.751337 149.890084 277.976988 150.744432 280.202638 151.598779 281.313525 154.097627 280.458223 156.325765zM288.120157 143.071029C286.618184 144.925811 283.898674 145.213179 282.045963 143.712883 280.193251 142.212586 279.908921 139.492758 281.410895 137.637975 282.912868 135.783193 285.632377 135.495825 287.485089 136.996121 289.337801 138.496417 289.62213 141.216246 288.120157 143.071029zM299.40254 132.604319C297.42391 133.938922 294.739212 133.418626 293.406099 131.442205 292.072986 129.465784 292.596281 126.781669 294.574911 125.447066 296.553541 124.112463 299.238239 124.632759 300.571352 126.60918 301.904465 128.585601 301.38117 131.269716 299.40254 132.604319zM313.273893 125.927008C310.991519 126.6248 308.57625 125.342308 307.879237 123.062483 307.182225 120.782658 308.467414 118.368822 310.749787 117.671031 313.032161 116.973239 315.44743 118.255731 316.144443 120.535556 316.841455 122.815381 315.556266 125.229216 313.273893 125.927008zM95.5057096 11.2481265L94.340792 8.00338222C94.340792 8.00338222 99.9186207 1.71962472 99.9186207 1.04126805 99.9186207.362911374 100.692335 8.27213009 100.692335 8.27213009L99.4237648 11.0454845 102.658384 11.1702823 102.643672 13.6835382 99.7815322 15.0686709 99.6932606 18.3035302C99.6932606 18.3035302 102.71907 37.2094498 103.864261 40.1591893 105.009451 43.1089288 105.399484 44.68901 106.798455 44.68901 108.197426 44.68901 108.791922 42.3153795 108.791922 41.2688073 108.791922 40.2222352 108.791922 39.4536781 108.791922 39.4536781L106.885389 39.1212957C106.885389 39.1212957 108.124008 38.9112785 108.566228 38.6010987L108.566228 37.9423283 106.20396 36.7946188C106.20396 36.7946188 108.339135 36.6756529 109.159888 36.3661376L109.159888 35.6799038 107.814247 32.6293358 111.179602 34.6644058 112.141562 34.4877118 112.917282 30.7320377 114.6242 34.3579715 116.154241 34.6644058 119.008189 32.7913276 118.192178 35.5188387C118.192178 35.5188387 118.180347 36.0912264 118.370728 36.1372677 118.561108 36.183309 120.780977 36.3661376 120.780977 36.3661376L118.370728 37.1300903C118.370728 37.1300903 118.369347 37.6206109 118.584051 37.7373695 118.798754 37.8541281 121.075717 38.6010987 121.075717 38.6010987L118.309874 39.4536781 117.836417 41.845843 118.584051 44.3204565C118.584051 44.3204565 118.584051 44.3204565 118.192178 46.0871167 120.247168 46.8786581 125.574225 54.6221782 125.574225 55.9659175 125.574225 57.3096568 126.300459 62.1668883 127.384461 62.1668883 128.468463 62.1668883 130.145624 62.1359977 130.145624 62.1359977L132.281529 58.8788972 139.308483 62.4881501 137.767074 64.2909231 137.553751 69.061661 131.535233 73.0706378 131.388782 78.3078231 127.84655 81.138634 128.318 107.530292 126.283073 108.962996C126.283073 108.962996 125.307404 114.236014 126.345933 114.236014 127.384461 114.236014 128.78477 114.07353 128.78477 114.07353L128.386879 122.179213C128.386879 122.179213 130.940737 125.034118 130.940737 125.980605 130.940737 126.927092 129.816611 129.02765 128.831581 129.02765 127.84655 129.02765 128.507918 131.535963 128.507918 131.535963L132.830551 131.819538 132.697475 138.495606 130.24192 141.764445 131.219595 215.408503 94.0940328 216.372288 94.3534978 131.560676 97.485802 131.621839 97.1240222 121.293889 102.194958 117.021725 102.658384 85.8049618C102.658384 85.8049618 100.446244 82.0183971 100.569289 80.1631101 100.692335 78.3078231 102.598867 74.7523198 102.598867 74.7523198L102.766717 72.6906839 99.891203 74.3501247 99.4926434 67.448556 101.911419 61.3155445C101.911419 61.3155445 101.090894 60.2108981 100.436213 58.9771292 99.7815322 57.7433602 99.8397112 51.6888107 99.8397112 51.6888107 99.8397112 51.6888107 96.7769543 48.4057621 96.7769543 46.0871167 96.7769543 43.7684714 97.8502567 41.4109039 98.7717587 41.3398556 99.6932606 41.2688073 97.1587959 34.8812576 97.141409 33.7389247 97.1240222 32.5965918 97.485802 29.4434089 97.485802 27.4596172 97.485802 25.4758255 95.5057096 18.5527879 95.5057096 18.5527879L94.4832303 15.3269159 93.426646 14.5713329 93 11.0769928 95.5057096 11.2481265zM568.621997 110.354747C573.343587 110.480321 600.81355 112.658391 600.81355 112.658391L607.570654 111.705987 607.912122 112.45366C607.912122 112.45366 607.928176 112.658391 613.605305 112.97591 613.979808 115.744133 607.928176 116.766699 607.928176 116.766699 607.928176 116.766699 602.026902 117.044859 599.871272 117.044859 597.715643 117.044859 598.634765 123.068553 594.802363 125.636713 586.989982 124.670308 594.802363 125.636713 587.390265 124.799898 579.924137 124.799898 575.112718 128.87756 575.112718 128.87756 575.112718 128.87756 575.807559 132.576873 575.807559 136.895358L575.807559 141.774207C575.807559 141.774207 576.786231 154.244387 576.530476 164.431666 576.27472 174.618945 574.473006 194.932217 574.473006 194.932217L579.071394 198.330501 585.94582 294.916638 564.621997 294.996266 564.621997 298 559.621997 298 559.621997 297.466998 540.298173 298 547.172599 199.204987 551.770987 195.773059 551.456689 141.623258C551.456689 141.623258 551.456689 139.116555 551.131276 136.93193 549.902024 132.854591 551.131276 129.06445 551.131276 129.06445 551.131276 129.06445 546.319857 124.94642 538.853729 124.94642 531.44163 125.791519 539.254011 124.815546 531.44163 125.791519 527.609229 123.197934 528.52835 117.114605 526.372721 117.114605 524.217092 117.114605 518.315817 116.83369 518.315817 116.83369 518.315817 116.83369 512.264186 115.801001 512.638688 113.005372 518.315817 112.684709 518.331872 112.477951 518.331872 112.477951L518.673339 111.722877 525.430444 112.684709C525.430444 112.684709 554.555367 110.352557 557.981003 110.352557 558.597697 110.352557 559.142761 110.341131 559.621997 110.322393L559.621997 110 559.621997 102.503992C559.621997 100.016506 561.641772 98 564.121997 98 566.607278 98 568.621997 100.00733 568.621997 102.503992L568.621997 110.354747z"/>
    </g>
    <path fill="#F4F6F9" d="M7.01370157,277.491279 C-34.7524157,224.290059 118.876188,190.944793 233.394577,203.733219 C347.912967,216.521646 369.988588,243.697051 533.099295,229.310072 C696.210002,214.923092 709.755244,245.031922 677.241237,264.913407 C645.634408,284.240175 788.974301,269.097365 751.793436,322.976277 C714.612571,376.855189 368.546813,344.433639 280.062612,316.118282 C191.578411,287.802925 48.7798189,330.6925 7.01370157,277.491279 Z"/>
    <path fill="url(#collision-damage-e)" d="M7.01370157,277.491279 C-35.0581718,211.699258 141.27906,193.99281 401.112773,288.781381 C447.139353,305.572096 518.82979,305.572096 588.468787,288.781381 C652.156364,273.425618 788.974301,269.097365 751.793436,322.976277 C714.612571,376.855189 368.546813,344.433639 280.062612,316.118282 C191.578411,287.802925 39.5393894,328.35497 7.01370157,277.491279 Z" opacity=".187"/>
    <path fill="url(#collision-damage-f)" d="M449.215468,265.336176 C454.95592,263.914375 509.249507,245.560707 526.978192,252.695352 C535.373811,256.074043 576.621997,251.113885 576.621997,244.583454 C576.621997,238.843756 529.435155,233 501.368062,233 C478.06566,233 468.553497,234.725817 452.695536,233 C430.436344,230.577539 432.010893,230.950093 421.430994,234.515079 C412.62212,237.483303 378.094914,253.663465 372.526927,257.67465 C366.95894,261.685834 406.398149,275.941213 449.215468,265.336176 Z" opacity=".204"/>
    <g transform="translate(407 147)">
      <g>
        <polygon fill="#BDD7FF" points="0 19.047 18.572 .614 40.239 .614 61.907 19.047 61.907 97.076 0 97.076"/>
        <polygon fill="#65A2FF" points="18.527 .614 40.217 .614 61.895 19.047 34.064 19.67"/>
        <use fill="#DDEAFF" xlink:href="#collision-damage-g"/>
        <path fill="#FFF" d="M5.57159029 27.3697512C5.57159029 25.4876175 7.0998247 23.9618466 8.97645102 23.9618466L8.97645102 23.9618466C10.8569037 23.9618466 12.3813117 25.4879816 12.3813117 27.3697512L12.3813117 35.6355667 5.57159029 35.6355667 5.57159029 27.3697512zM5.57159029 45.1875346C5.57159029 43.3054008 7.0998247 41.7796299 8.97645102 41.7796299L8.97645102 41.7796299C10.8569037 41.7796299 12.3813117 43.305765 12.3813117 45.1875346L12.3813117 53.45335 5.57159029 53.45335 5.57159029 45.1875346zM5.57159029 62.3909116C5.57159029 60.5087778 7.0998247 58.9830069 8.97645102 58.9830069L8.97645102 58.9830069C10.8569037 58.9830069 12.3813117 60.509142 12.3813117 62.3909116L12.3813117 70.6567271 5.57159029 70.6567271 5.57159029 62.3909116zM17.952902 27.3697512C17.952902 25.4876175 19.4811364 23.9618466 21.3577628 23.9618466L21.3577628 23.9618466C23.2382154 23.9618466 24.7626235 25.4879816 24.7626235 27.3697512L24.7626235 35.6355667 17.952902 35.6355667 17.952902 27.3697512zM17.952902 45.1875346C17.952902 43.3054008 19.4811364 41.7796299 21.3577628 41.7796299L21.3577628 41.7796299C23.2382154 41.7796299 24.7626235 43.305765 24.7626235 45.1875346L24.7626235 53.45335 17.952902 53.45335 17.952902 45.1875346zM17.952902 62.3909116C17.952902 60.5087778 19.4811364 58.9830069 21.3577628 58.9830069L21.3577628 58.9830069C23.2382154 58.9830069 24.7626235 60.509142 24.7626235 62.3909116L24.7626235 70.6567271 17.952902 70.6567271 17.952902 62.3909116z"/>
      </g>
      <g transform="translate(33.43)">
        <polygon fill="#65A2FF" points="18.527 .614 40.217 .614 61.895 19.047 34.064 19.67"/>
        <use fill="#BDD7FF" xlink:href="#collision-damage-h"/>
        <g fill="#EEF5FF" transform="translate(4.953 22.733)">
          <rect width="3.095" height="10.445"/>
          <rect width="3.095" height="10.445" y="12.903"/>
          <rect width="3.095" height="10.445" y="25.805"/>
          <rect width="3.095" height="10.445" x="4.333"/>
          <rect width="3.095" height="10.445" x="4.333" y="12.903"/>
          <rect width="3.095" height="10.445" x="4.333" y="25.805"/>
          <rect width="3.095" height="10.445" x="8.667"/>
          <rect width="3.095" height="10.445" x="8.667" y="12.903"/>
          <rect width="3.095" height="10.445" x="8.667" y="25.805"/>
          <rect width="3.095" height="10.445" x="13"/>
          <rect width="3.095" height="10.445" x="13" y="12.903"/>
          <rect width="3.095" height="10.445" x="13" y="25.805"/>
          <rect width="3.095" height="10.445" x="17.334"/>
          <rect width="3.095" height="10.445" x="17.334" y="12.903"/>
          <rect width="3.095" height="10.445" x="17.334" y="25.805"/>
        </g>
      </g>
      <g transform="translate(67.478 .614)">
        <polygon fill="#BDD7FF" points="0 19.047 18.572 .614 40.239 .614 61.907 19.047 61.907 97.076 0 97.076"/>
        <polygon fill="#65A2FF" points="18.527 .614 40.217 .614 61.895 19.047 34.064 19.67"/>
        <use fill="#EEF5FF" xlink:href="#collision-damage-i"/>
        <g transform="translate(6.19 26.42)">
          <mask id="collision-damage-k" fill="#fff">
            <use xlink:href="#collision-damage-j"/>
          </mask>
          <use fill="#86B6FF" xlink:href="#collision-damage-j"/>
          <path stroke="#D9E8FF" stroke-linecap="square" d="M2.78579514-.307203161L2.78579514 10.1377043M-2.47626235 4.91525058L8.04785264 4.91525058" mask="url(#collision-damage-k)"/>
        </g>
        <g transform="translate(6.19 37.479)">
          <mask id="collision-damage-m" fill="#fff">
            <use xlink:href="#collision-damage-l"/>
          </mask>
          <use fill="#86B6FF" xlink:href="#collision-damage-l"/>
          <path stroke="#D9E8FF" stroke-linecap="square" d="M2.78579514-.307203161L2.78579514 10.1377043M-2.47626235 4.91525058L8.04785264 4.91525058" mask="url(#collision-damage-m)"/>
        </g>
        <g transform="translate(6.19 48.538)">
          <mask id="collision-damage-o" fill="#fff">
            <use xlink:href="#collision-damage-n"/>
          </mask>
          <use fill="#86B6FF" xlink:href="#collision-damage-n"/>
          <path stroke="#D9E8FF" stroke-linecap="square" d="M2.78579514-.307203161L2.78579514 10.1377043M-2.47626235 4.91525058L8.04785264 4.91525058" mask="url(#collision-damage-o)"/>
        </g>
        <g transform="translate(13 26.42)">
          <mask id="collision-damage-q" fill="#fff">
            <use xlink:href="#collision-damage-p"/>
          </mask>
          <use fill="#86B6FF" xlink:href="#collision-damage-p"/>
          <path stroke="#D9E8FF" stroke-linecap="square" d="M2.78579514-.307203161L2.78579514 10.1377043M-2.47626235 4.91525058L8.04785264 4.91525058" mask="url(#collision-damage-q)"/>
        </g>
        <g transform="translate(13 37.479)">
          <mask id="collision-damage-s" fill="#fff">
            <use xlink:href="#collision-damage-r"/>
          </mask>
          <use fill="#86B6FF" xlink:href="#collision-damage-r"/>
          <path stroke="#D9E8FF" stroke-linecap="square" d="M2.78579514-.307203161L2.78579514 10.1377043M-2.47626235 4.91525058L8.04785264 4.91525058" mask="url(#collision-damage-s)"/>
        </g>
        <g transform="translate(13 48.538)">
          <mask id="collision-damage-u" fill="#fff">
            <use xlink:href="#collision-damage-t"/>
          </mask>
          <use fill="#86B6FF" xlink:href="#collision-damage-t"/>
          <path stroke="#D9E8FF" stroke-linecap="square" d="M2.78579514-.307203161L2.78579514 10.1377043M-2.47626235 4.91525058L8.04785264 4.91525058" mask="url(#collision-damage-u)"/>
        </g>
        <g transform="translate(19.81 26.42)">
          <mask id="collision-damage-w" fill="#fff">
            <use xlink:href="#collision-damage-v"/>
          </mask>
          <use fill="#86B6FF" xlink:href="#collision-damage-v"/>
          <path stroke="#D9E8FF" stroke-linecap="square" d="M2.78579514-.307203161L2.78579514 10.1377043M-2.47626235 4.91525058L8.04785264 4.91525058" mask="url(#collision-damage-w)"/>
        </g>
        <g transform="translate(19.81 37.479)">
          <mask id="collision-damage-y" fill="#fff">
            <use xlink:href="#collision-damage-x"/>
          </mask>
          <use fill="#86B6FF" xlink:href="#collision-damage-x"/>
          <path stroke="#D9E8FF" stroke-linecap="square" d="M2.78579514-.307203161L2.78579514 10.1377043M-2.47626235 4.91525058L8.04785264 4.91525058" mask="url(#collision-damage-y)"/>
        </g>
        <g transform="translate(19.81 48.538)">
          <mask id="collision-damage-A" fill="#fff">
            <use xlink:href="#collision-damage-z"/>
          </mask>
          <use fill="#86B6FF" xlink:href="#collision-damage-z"/>
          <path stroke="#D9E8FF" stroke-linecap="square" d="M2.78579514-.307203161L2.78579514 10.1377043M-2.47626235 4.91525058L8.04785264 4.91525058" mask="url(#collision-damage-A)"/>
        </g>
      </g>
    </g>
    <g transform="translate(625 231)">
      <use fill="#80EFC5" transform="rotate(3 19.605 32.281)" xlink:href="#collision-damage-B"/>
      <path stroke="#86B6FF" stroke-linecap="round" d="M19.1943987 82.0656353C19.1943987 82.0656353 23.8282531 39.8877195 15.2978095 12.754101M19 30C19 30 19.7657274 25.8145754 23.1060451 23"/>
      <path stroke="#86B6FF" stroke-linecap="round" d="M15,37 C15,37 15.7657274,32.8145754 19.1060451,30" transform="scale(-1 1) rotate(8 0 -210.37)"/>
      <path stroke="#86B6FF" stroke-linecap="round" d="M20,41 C20,41 21.3054147,36.2166576 27,33"/>
    </g>
    <g transform="translate(586 245)">
      <use fill="#80EFC5" transform="rotate(3 19.605 32.281)" xlink:href="#collision-damage-C"/>
      <path stroke="#86B6FF" stroke-linecap="round" d="M19.1943987 82.0656353C19.1943987 82.0656353 23.8282531 39.8877195 15.2978095 12.754101M19 30C19 30 19.7657274 25.8145754 23.1060451 23"/>
      <path stroke="#86B6FF" stroke-linecap="round" d="M15,37 C15,37 15.7657274,32.8145754 19.1060451,30" transform="scale(-1 1) rotate(8 0 -210.37)"/>
      <path stroke="#86B6FF" stroke-linecap="round" d="M20,41 C20,41 21.3054147,36.2166576 27,33"/>
    </g>
    <g opacity=".4" transform="translate(533 167)">
      <use fill="#80EFC5" transform="rotate(3 14.578 25.22)" xlink:href="#collision-damage-D"/>
      <path stroke="#86B6FF" stroke-linecap="round" d="M14.0247055 64C14.0247055 64 17.621709 31.1395609 11 10M14 23C14 23 14.5594634 20.010411 17 18"/>
      <path stroke="#86B6FF" stroke-linecap="round" d="M11,28 C11,28 11.5594634,25.010411 14,23" transform="scale(-1 1) rotate(8 0 -153.258)"/>
      <path stroke="#86B6FF" stroke-linecap="round" d="M15,32 C15,32 15.9324391,28.4124932 20,26"/>
    </g>
    <g opacity=".2" transform="translate(336 168)">
      <use fill="#80EFC5" transform="rotate(3 12.065 23.707)" xlink:href="#collision-damage-E"/>
      <path stroke="#86B6FF" stroke-linecap="round" d="M12.2685291 60C12.2685291 60 14.9662817 28.9651408 10 9M12 22C12 22 12.3729756 19.010411 14 17"/>
      <path stroke="#86B6FF" stroke-linecap="round" d="M10,27 C10,27 10.3729756,24.010411 12,22" transform="scale(-1 1) rotate(8 0 -132.807)"/>
      <path stroke="#86B6FF" stroke-linecap="round" d="M12,29 C12,29 12.7459513,26.010411 16,24"/>
    </g>
    <g opacity=".2" transform="translate(562 170)">
      <use fill="#80EFC5" transform="rotate(3 15.08 28.75)" xlink:href="#collision-damage-F"/>
      <path stroke="#86B6FF" stroke-linecap="round" d="M15.0247055 73C15.0247055 73 18.621709 35.2713477 12 11M15 27C15 27 15.5594634 23.4124932 18 21"/>
      <path stroke="#86B6FF" stroke-linecap="round" d="M12,33 C12,33 12.5594634,29.4124932 15,27" transform="scale(-1 1) rotate(8 0 -163.059)"/>
      <path stroke="#86B6FF" stroke-linecap="round" d="M15,36 C15,36 15.9324391,31.8145754 20,29"/>
    </g>
    <path fill="url(#collision-damage-G)" d="M208.434166,263.785051 C175.587682,266.101571 211.512992,275.086322 218.057481,275.086322 C224.60197,275.086322 236.74162,275.084163 250.222536,278.148967 C263.703451,281.21377 260.774274,283.834989 269.379261,287.26383 C277.984248,290.692671 368.596735,283.306876 399.258782,278.148967 C429.920829,272.991058 422.698899,269.425851 376.310091,265.347253 C329.921284,261.268656 241.280649,261.468532 208.434166,263.785051 Z" opacity=".2"/>
    <g opacity=".599" transform="translate(273 113)">
      <path fill="#23D291" d="M5.32099524 8C4.95544567 8 3.18178059 8.48334966 0 9.45004898L5.13458356 29 10 9.1005912C7.94704747 9.33356305 6.38737922 8.96669932 5.32099524 8zM25.8533347 0C25.5068208 0 23.8890425.452834578 21 1.35850374L25.2468119 21 30 3.03104041C28.2464097 1.97578999 26.8641879.965443183 25.8533347 0z"/>
      <use fill="#23D291" xlink:href="#collision-damage-H"/>
      <mask id="collision-damage-J" fill="#fff">
        <use xlink:href="#collision-damage-I"/>
      </mask>
      <use fill="#C4FBE7" xlink:href="#collision-damage-I"/>
      <polyline stroke="#80EFC5" stroke-linecap="square" stroke-width="5" points="14 42.747 20.318 49 34 36" mask="url(#collision-damage-J)"/>
      <path stroke="#23D291" stroke-linecap="square" stroke-opacity=".569" stroke-width="5" d="M20,49 L34,36" mask="url(#collision-damage-J)"/>
    </g>
    <g transform="rotate(6 -1698.614 1857.762)">
      <ellipse cx="113.5" cy="61.5" fill="#428DFF" rx="13.5" ry="12.5"/>
      <ellipse cx="39.5" cy="60.5" fill="#428DFF" rx="13.5" ry="12.5"/>
      <g transform="translate(3 7)">
        <mask id="collision-damage-L" fill="#fff">
          <use xlink:href="#collision-damage-K"/>
        </mask>
        <use fill="#AFCDFB" xlink:href="#collision-damage-K"/>
        <path fill="#86B6FF" d="M92.2666316,36.3219953 L178.484294,32.8248149 C179.036125,32.8024314 179.501618,33.2316334 179.524001,33.7834643 C179.524549,33.796967 179.524823,33.8104794 179.524823,33.8239932 L179.524823,46.9130435 C179.524823,47.4653282 179.077107,47.9130435 178.524823,47.9130435 L79.2042335,47.9130435 C78.6519488,47.9130435 78.2042335,47.4653282 78.2042335,46.9130435 C78.2042335,46.7049014 78.2691814,46.5019465 78.3900222,46.3324749 L81.2951186,42.2582582 C83.8388512,38.6908317 87.8887811,36.4995707 92.2666316,36.3219953 Z" mask="url(#collision-damage-L)" opacity=".44"/>
        <path fill="#428DFF" d="M170.68486 42.8695652L176 42.8695652C176.552285 42.8695652 177 43.3172805 177 43.8695652L177 46.9130435C177 47.4653282 176.552285 47.9130435 176 47.9130435L169.163121 47.9130435C168.610836 47.9130435 168.163121 47.4653282 168.163121 46.9130435L168.163121 45.3913043C168.163121 43.9985863 169.292142 42.8695652 170.68486 42.8695652zM15.4547214 41.6539935L32.0433739 42.3741859C32.578286 42.397409 33 42.8378289 33 43.3732449L33 45.6521739C33 46.2044587 32.5522847 46.6521739 32 46.6521739L15.4113475 46.6521739C14.8590628 46.6521739 14.4113475 46.2044587 14.4113475 45.6521739L14.4113475 42.6530524C14.4113475 42.1007676 14.8590628 41.6530524 15.4113475 41.6530524 15.4258106 41.6530524 15.440272 41.6533662 15.4547214 41.6539935z" mask="url(#collision-damage-L)"/>
      </g>
      <path fill="#EEF5FF" d="M44,44 L52,44 C53.1045695,44 54,44.8954305 54,46 L54,49.3104902 C54,50.4150597 53.1045695,51.3104902 52,51.3104902 L44,51.3104902 C42.8954305,51.3104902 42,50.4150597 42,49.3104902 L42,46 C42,44.8954305 42.8954305,44 44,44 Z"/>
      <path fill="#EEF5FF" d="M5,42 L13,42 C14.1045695,42 15,42.8954305 15,44 L15,47.3104902 C15,48.4150597 14.1045695,49.3104902 13,49.3104902 L5,49.3104902 C3.8954305,49.3104902 3,48.4150597 3,47.3104902 L3,44 C3,42.8954305 3.8954305,42 5,42 Z" transform="matrix(-1 0 0 1 18 0)"/>
      <path fill="#92BCFB" d="M2.08713973,52.0018866 L55.440414,54.328691 L177,54.328691 C178.656854,54.328691 180,55.6718368 180,57.328691 L180,61 C180,62.6568542 178.656854,64 177,64 L54.4695108,64 L1.8671283,60.497578 C0.816462702,60.4276216 5.49510371e-16,59.5549886 8.8817842e-16,58.5019967 L1.33226763e-15,53.9999874 C1.19699688e-15,52.8954179 0.8954305,51.9999874 2,51.9999874 C2.02905692,51.9999874 2.0581104,52.0006206 2.08713973,52.0018866 Z"/>
      <rect width="116" height="10" x="64" y="54" fill="#65A2FF" rx="1"/>
      <g transform="translate(44 11)">
        <use fill="#86B6FF" xlink:href="#collision-damage-M"/>
      </g>
      <path fill="#65A2FF" d="M72.024702,3.8885927 C72.3212401,3.72784898 72.6664737,3.82482473 73.0604026,4.17951996 C78.4085089,16.0841082 81.3318838,22.5997523 81.8305272,23.7264524 C81.9895936,24.0858678 81.9352666,24.4079158 81.0995601,25.0743503 C79.1748904,26.6091789 70.6738183,33.0384015 55.5963436,44.362018 C66.35756,17.7023284 71.8336794,4.21118666 72.024702,3.8885927 Z" transform="rotate(42 68.749 24.088)"/>
      <g transform="translate(85 11)">
        <use fill="#65A2FF" transform="matrix(-1 0 0 1 33.2 0)" xlink:href="#collision-damage-N"/>
      </g>
      <g transform="translate(118 13)">
        <use fill="#65A2FF" xlink:href="#collision-damage-O"/>
      </g>
      <path fill="#86B6FF" stroke="#428DFF" stroke-width="8" d="M14.1680507,25 C20.0049745,25 25.1525182,20.2320187 25.1525182,14.8319493 C25.1525182,9.43187982 20.0049745,4.66389852 14.1680507,4.66389852 C8.55239138,4.66389852 4,9.2162899 4,14.8319493 C4,20.4476086 8.55239138,25 14.1680507,25 Z" transform="translate(61 50)"/>
      <circle cx="14.286" cy="14.832" r="10.168" fill="#86B6FF" stroke="#428DFF" stroke-width="8" transform="translate(132 50)"/>
    </g>
    <g transform="rotate(-4 918.317 -8024.532)">
      <path stroke="#73ABFF" stroke-linecap="square" stroke-width="2" d="M11.1089437,48.3464295 L6.66536619,36.4457699"/>
      <path stroke="#73ABFF" stroke-linecap="square" stroke-width="2" d="M28.8832535,48.3464295 L24.439676,36.4457699" transform="matrix(-1 0 0 1 53.323 0)"/>
      <path stroke="#73ABFF" stroke-linecap="square" stroke-width="2" d="M17.7743098,48.3464295 L17.7743098,36.4457699"/>
      <use fill="#428DFF" xlink:href="#collision-damage-P"/>
      <use fill="url(#collision-damage-Q)" xlink:href="#collision-damage-P"/>
      <use fill="#C3FBDC" xlink:href="#collision-damage-R"/>
      <use fill="url(#collision-damage-S)" xlink:href="#collision-damage-R"/>
      <path stroke="#BFD8FF" stroke-linecap="square" stroke-width="2" d="M17.7743098,5.20653856 L17.7743098,0.247930408"/>
      <path fill="#93F6D1" d="M18.2680407,0.638496972 C18.2680407,0.638496972 19.135284,0.384809237 20.3208327,0.847055206 C21.5063814,1.30930118 21.2412742,1.64435485 23.3295049,1.91310754 C21.7438045,3.35807694 21.2075918,2.8650158 19.7876853,3.07201271 C18.487413,3.2615691 18.2680407,4.10952268 18.2680407,4.10952268 L18.2680407,2.07859624 L18.2680407,0.638496972 Z"/>
      <g>
        <use fill="#7FB1FE" xlink:href="#collision-damage-T"/>
        <use fill="url(#collision-damage-U)" xlink:href="#collision-damage-T"/>
      </g>
    </g>
  </g>
</svg>
